<svg width="58" height="59" viewBox="0 0 58 59" fill="none" xmlns="http://www.w3.org/2000/svg">
<path d="M54.392 19H3.608C1.616 19 0 17.384 0 15.392V3.608C0 1.616 1.616 0 3.608 0H54.391C56.384 0 58 1.616 58 3.608V15.391C58 17.384 56.384 19 54.392 19Z" fill="#556080"/>
<path d="M54.392 38H3.608C1.616 38 0 36.384 0 34.392V22.608C0 20.616 1.616 19 3.608 19H54.391C56.384 19 57.999 20.616 57.999 22.608V34.391C58 36.384 56.384 38 54.392 38Z" fill="#38454F"/>
<path d="M54.392 57H3.608C1.616 57 0 55.384 0 53.392V41.608C0 39.616 1.616 38 3.608 38H54.391C56.384 38 57.999 39.616 57.999 41.608V53.391C58 55.384 56.384 57 54.392 57Z" fill="#556080"/>
<path d="M9.5 13C11.433 13 13 11.433 13 9.5C13 7.567 11.433 6 9.5 6C7.567 6 6 7.567 6 9.5C6 11.433 7.567 13 9.5 13Z" fill="#8697CB"/>
<path d="M49 9C49.5523 9 50 8.55228 50 8C50 7.44772 49.5523 7 49 7C48.4477 7 48 7.44772 48 8C48 8.55228 48.4477 9 49 9Z" fill="#8697CB"/>
<path d="M45 9C45.5523 9 46 8.55228 46 8C46 7.44772 45.5523 7 45 7C44.4477 7 44 7.44772 44 8C44 8.55228 44.4477 9 45 9Z" fill="#8697CB"/>
<path d="M51 12C51.5523 12 52 11.5523 52 11C52 10.4477 51.5523 10 51 10C50.4477 10 50 10.4477 50 11C50 11.5523 50.4477 12 51 12Z" fill="#8697CB"/>
<path d="M47 12C47.5523 12 48 11.5523 48 11C48 10.4477 47.5523 10 47 10C46.4477 10 46 10.4477 46 11C46 11.5523 46.4477 12 47 12Z" fill="#8697CB"/>
<path d="M41 9C41.5523 9 42 8.55228 42 8C42 7.44772 41.5523 7 41 7C40.4477 7 40 7.44772 40 8C40 8.55228 40.4477 9 41 9Z" fill="#8697CB"/>
<path d="M43 12C43.5523 12 44 11.5523 44 11C44 10.4477 43.5523 10 43 10C42.4477 10 42 10.4477 42 11C42 11.5523 42.4477 12 43 12Z" fill="#8697CB"/>
<path d="M37 9C37.5523 9 38 8.55228 38 8C38 7.44772 37.5523 7 37 7C36.4477 7 36 7.44772 36 8C36 8.55228 36.4477 9 37 9Z" fill="#8697CB"/>
<path d="M39 12C39.5523 12 40 11.5523 40 11C40 10.4477 39.5523 10 39 10C38.4477 10 38 10.4477 38 11C38 11.5523 38.4477 12 39 12Z" fill="#8697CB"/>
<path d="M33 9C33.5523 9 34 8.55228 34 8C34 7.44772 33.5523 7 33 7C32.4477 7 32 7.44772 32 8C32 8.55228 32.4477 9 33 9Z" fill="#8697CB"/>
<path d="M35 12C35.5523 12 36 11.5523 36 11C36 10.4477 35.5523 10 35 10C34.4477 10 34 10.4477 34 11C34 11.5523 34.4477 12 35 12Z" fill="#8697CB"/>
<path d="M9.5 32C11.433 32 13 30.433 13 28.5C13 26.567 11.433 25 9.5 25C7.567 25 6 26.567 6 28.5C6 30.433 7.567 32 9.5 32Z" fill="#8697CB"/>
<path d="M49 28C49.5523 28 50 27.5523 50 27C50 26.4477 49.5523 26 49 26C48.4477 26 48 26.4477 48 27C48 27.5523 48.4477 28 49 28Z" fill="#8697CB"/>
<path d="M45 28C45.5523 28 46 27.5523 46 27C46 26.4477 45.5523 26 45 26C44.4477 26 44 26.4477 44 27C44 27.5523 44.4477 28 45 28Z" fill="#8697CB"/>
<path d="M51 31C51.5523 31 52 30.5523 52 30C52 29.4477 51.5523 29 51 29C50.4477 29 50 29.4477 50 30C50 30.5523 50.4477 31 51 31Z" fill="#8697CB"/>
<path d="M47 31C47.5523 31 48 30.5523 48 30C48 29.4477 47.5523 29 47 29C46.4477 29 46 29.4477 46 30C46 30.5523 46.4477 31 47 31Z" fill="#8697CB"/>
<path d="M41 28C41.5523 28 42 27.5523 42 27C42 26.4477 41.5523 26 41 26C40.4477 26 40 26.4477 40 27C40 27.5523 40.4477 28 41 28Z" fill="#8697CB"/>
<path d="M43 31C43.5523 31 44 30.5523 44 30C44 29.4477 43.5523 29 43 29C42.4477 29 42 29.4477 42 30C42 30.5523 42.4477 31 43 31Z" fill="#8697CB"/>
<path d="M37 28C37.5523 28 38 27.5523 38 27C38 26.4477 37.5523 26 37 26C36.4477 26 36 26.4477 36 27C36 27.5523 36.4477 28 37 28Z" fill="#8697CB"/>
<path d="M39 31C39.5523 31 40 30.5523 40 30C40 29.4477 39.5523 29 39 29C38.4477 29 38 29.4477 38 30C38 30.5523 38.4477 31 39 31Z" fill="#8697CB"/>
<path d="M33 28C33.5523 28 34 27.5523 34 27C34 26.4477 33.5523 26 33 26C32.4477 26 32 26.4477 32 27C32 27.5523 32.4477 28 33 28Z" fill="#8697CB"/>
<path d="M35 31C35.5523 31 36 30.5523 36 30C36 29.4477 35.5523 29 35 29C34.4477 29 34 29.4477 34 30C34 30.5523 34.4477 31 35 31Z" fill="#8697CB"/>
<path d="M9.5 51C11.433 51 13 49.433 13 47.5C13 45.567 11.433 44 9.5 44C7.567 44 6 45.567 6 47.5C6 49.433 7.567 51 9.5 51Z" fill="#8697CB"/>
<path d="M49 47C49.5523 47 50 46.5523 50 46C50 45.4477 49.5523 45 49 45C48.4477 45 48 45.4477 48 46C48 46.5523 48.4477 47 49 47Z" fill="#8697CB"/>
<path d="M45 47C45.5523 47 46 46.5523 46 46C46 45.4477 45.5523 45 45 45C44.4477 45 44 45.4477 44 46C44 46.5523 44.4477 47 45 47Z" fill="#8697CB"/>
<path d="M51 50C51.5523 50 52 49.5523 52 49C52 48.4477 51.5523 48 51 48C50.4477 48 50 48.4477 50 49C50 49.5523 50.4477 50 51 50Z" fill="#8697CB"/>
<path d="M47 50C47.5523 50 48 49.5523 48 49C48 48.4477 47.5523 48 47 48C46.4477 48 46 48.4477 46 49C46 49.5523 46.4477 50 47 50Z" fill="#8697CB"/>
<path d="M41 47C41.5523 47 42 46.5523 42 46C42 45.4477 41.5523 45 41 45C40.4477 45 40 45.4477 40 46C40 46.5523 40.4477 47 41 47Z" fill="#8697CB"/>
<path d="M43 50C43.5523 50 44 49.5523 44 49C44 48.4477 43.5523 48 43 48C42.4477 48 42 48.4477 42 49C42 49.5523 42.4477 50 43 50Z" fill="#8697CB"/>
<path d="M37 47C37.5523 47 38 46.5523 38 46C38 45.4477 37.5523 45 37 45C36.4477 45 36 45.4477 36 46C36 46.5523 36.4477 47 37 47Z" fill="#8697CB"/>
<path d="M39 50C39.5523 50 40 49.5523 40 49C40 48.4477 39.5523 48 39 48C38.4477 48 38 48.4477 38 49C38 49.5523 38.4477 50 39 50Z" fill="#8697CB"/>
<path d="M33 47C33.5523 47 34 46.5523 34 46C34 45.4477 33.5523 45 33 45C32.4477 45 32 45.4477 32 46C32 46.5523 32.4477 47 33 47Z" fill="#8697CB"/>
<path d="M35 50C35.5523 50 36 49.5523 36 49C36 48.4477 35.5523 48 35 48C34.4477 48 34 48.4477 34 49C34 49.5523 34.4477 50 35 50Z" fill="#8697CB"/>
<path d="M53.045 48.111C52.994 44.175 49.882 41 46.046 41C43.478 41 41.24 42.426 40.021 44.546C39.6 44.405 39.151 44.326 38.684 44.326C36.621 44.326 34.899 45.818 34.476 47.81C32.721 48.675 31.5 50.516 31.5 52.641C31.5 55.589 33.843 58 36.708 58H47.483C47.544 58 47.602 57.993 47.663 57.991C47.723 57.993 47.782 58 47.843 58H52.153C54.82 58 57.002 55.755 57.002 53.011C57 50.581 55.288 48.546 53.045 48.111Z" fill="#48A0DC"/>
<path d="M52.151 59H47.841C47.778 59 47.715 58.996 47.653 58.992C47.606 58.996 47.545 59 47.482 59H36.708C33.285 59 30.5 56.147 30.5 52.642C30.5 50.38 31.709 48.27 33.616 47.139C34.302 44.904 36.362 43.326 38.682 43.326C38.978 43.326 39.274 43.351 39.566 43.402C41.062 41.286 43.48 40 46.046 40C50.148 40 53.57 43.225 54 47.332C56.358 48.138 58 50.411 58 53.011C58 56.313 55.376 59 52.151 59ZM47.614 56.991L47.8 56.997L52.151 57C54.273 57 56 55.21 56 53.011C56 51.094 54.677 49.447 52.854 49.092L52.055 48.937L52.044 48.124C52.001 44.747 49.311 42 46.046 42C43.911 42 41.983 43.139 40.888 45.045L40.479 45.756L39.702 45.495C39.37 45.383 39.027 45.326 38.683 45.326C37.143 45.326 35.785 46.459 35.454 48.018L35.352 48.493L34.917 48.707C33.448 49.432 32.5 50.976 32.5 52.642C32.5 55.045 34.388 57 36.708 57L47.614 56.991Z" fill="#B1D3EF"/>
</svg>
