<svg width="53" height="56" viewBox="0 0 53 56" fill="none" xmlns="http://www.w3.org/2000/svg">
<path d="M47.955 8C47.224 3.538 36.781 0 24 0C11.219 0 0.776 3.538 0.045 8H0V8.5V20V20.5V21V32V32.5V33V45H0.045C0.776 49.461 11.22 53 24 53C36.78 53 47.224 49.461 47.955 45H48V33V32.5V32V21V20.5V20V8.5V8H47.955Z" fill="#545E73"/>
<path d="M24 41C10.745 41 0 37.194 0 32.5V45H0.045C0.776 49.461 11.22 53 24 53C36.78 53 47.224 49.461 47.955 45H48V32.5C48 37.194 37.255 41 24 41Z" fill="#38454F"/>
<path d="M0 32V32.5C0 32.332 0.018 32.166 0.045 32H0Z" fill="#38454F"/>
<path d="M47.955 32C47.982 32.166 48 32.332 48 32.5V32H47.955Z" fill="#38454F"/>
<path d="M24 29C10.745 29 0 25.194 0 20.5V33H0.045C0.776 37.461 11.22 41 24 41C36.78 41 47.224 37.461 47.955 33H48V20.5C48 25.194 37.255 29 24 29Z" fill="#556080"/>
<path d="M0 20V20.5C0 20.332 0.018 20.166 0.045 20H0Z" fill="#556080"/>
<path d="M47.955 20C47.982 20.166 48 20.332 48 20.5V20H47.955Z" fill="#556080"/>
<path d="M24 17C37.2548 17 48 13.1944 48 8.5C48 3.80558 37.2548 0 24 0C10.7452 0 0 3.80558 0 8.5C0 13.1944 10.7452 17 24 17Z" fill="#91BAE1"/>
<path d="M24 17C10.745 17 0 13.194 0 8.5V21H0.045C0.776 25.461 11.22 29 24 29C36.78 29 47.224 25.461 47.955 21H48V8.5C48 13.194 37.255 17 24 17Z" fill="#8697CB"/>
<path d="M0 8V8.5C0 8.332 0.018 8.166 0.045 8H0Z" fill="#8697CB"/>
<path d="M47.955 8C47.982 8.166 48 8.332 48 8.5V8H47.955Z" fill="#8697CB"/>
<path d="M48.045 45.111C47.994 41.175 44.882 38 41.046 38C38.478 38 36.24 39.426 35.021 41.546C34.6 41.405 34.151 41.326 33.684 41.326C31.621 41.326 29.899 42.818 29.476 44.81C27.721 45.675 26.5 47.516 26.5 49.641C26.5 52.589 28.843 55 31.708 55H42.483C42.544 55 42.602 54.993 42.663 54.991C42.723 54.993 42.782 55 42.843 55H47.153C49.82 55 52.002 52.755 52.002 50.011C52 47.581 50.288 45.546 48.045 45.111Z" fill="#48A0DC"/>
<path d="M47.151 56H42.841C42.778 56 42.715 55.996 42.653 55.992C42.606 55.996 42.545 56 42.482 56H31.708C28.285 56 25.5 53.147 25.5 49.642C25.5 47.38 26.709 45.27 28.616 44.139C29.302 41.904 31.362 40.326 33.682 40.326C33.978 40.326 34.274 40.351 34.566 40.402C36.062 38.286 38.48 37 41.046 37C45.148 37 48.57 40.225 49 44.332C51.358 45.138 53 47.411 53 50.011C53 53.313 50.376 56 47.151 56ZM42.614 53.991L42.8 53.997L47.151 54C49.273 54 51 52.21 51 50.011C51 48.094 49.677 46.447 47.854 46.092L47.055 45.937L47.044 45.124C47.001 41.747 44.311 39 41.046 39C38.911 39 36.983 40.139 35.888 42.045L35.479 42.756L34.702 42.495C34.37 42.383 34.027 42.326 33.683 42.326C32.143 42.326 30.785 43.459 30.454 45.018L30.352 45.493L29.917 45.707C28.448 46.432 27.5 47.976 27.5 49.642C27.5 52.045 29.388 54 31.708 54L42.614 53.991Z" fill="#B1D3EF"/>
</svg>
