<svg width="59" height="55" viewBox="0 0 59 55" fill="none" xmlns="http://www.w3.org/2000/svg">
<path d="M25 7L20 0H0V7V51H58V14H30L25 7Z" fill="#556080"/>
<path d="M30 14H58V7H25L30 14Z" fill="#3D4451"/>
<path d="M53.544 44.111C53.494 40.176 50.382 37 46.545 37C43.977 37 41.739 38.426 40.52 40.546C40.099 40.405 39.65 40.326 39.183 40.326C37.12 40.326 35.398 41.818 34.975 43.81C33.221 44.675 32 46.516 32 48.641C32 51.588 34.343 54 37.208 54H47.983C48.044 54 48.102 53.993 48.163 53.991C48.223 53.993 48.282 54 48.343 54H52.653C55.32 54 57.502 51.755 57.502 49.011C57.5 46.581 55.788 44.546 53.544 44.111Z" fill="#48A0DC"/>
<path d="M52.651 55H48.341C48.278 55 48.215 54.996 48.153 54.992C48.105 54.996 48.044 55 47.981 55H37.208C33.785 55 31 52.147 31 48.642C31 46.38 32.209 44.27 34.116 43.139C34.802 40.904 36.862 39.326 39.182 39.326C39.478 39.326 39.774 39.351 40.066 39.402C41.561 37.286 43.98 36 46.545 36C50.647 36 54.069 39.225 54.499 43.332C56.857 44.138 58.499 46.411 58.499 49.011C58.5 52.313 55.876 55 52.651 55ZM48.114 52.991L48.3 52.997L52.652 53C54.774 53 56.501 51.21 56.501 49.011C56.501 47.094 55.178 45.447 53.355 45.092L52.556 44.937L52.545 44.124C52.501 40.748 49.811 38.001 46.546 38.001C44.411 38.001 42.483 39.14 41.388 41.046L40.979 41.757L40.202 41.496C39.87 41.384 39.527 41.327 39.183 41.327C37.643 41.327 36.285 42.46 35.954 44.019L35.852 44.494L35.417 44.708C33.948 45.433 33 46.977 33 48.643C33 51.046 34.888 53.001 37.208 53.001L48.114 52.991Z" fill="#B1D3EF"/>
</svg>
